<?xml version="1.0" encoding="iso-8859-1"?>
<!-- Generator: Adobe Illustrator 19.0.0, SVG Export Plug-In . SVG Version: 6.00 Build 0)  -->
<svg version="1.1" id="Layer_1" xmlns="http://www.w3.org/2000/svg" xmlns:xlink="http://www.w3.org/1999/xlink" x="0px" y="0px"
	 viewBox="0 0 512 512" style="enable-background:new 0 0 512 512;" xml:space="preserve">
<circle style="fill:#00CC96;" cx="256" cy="256" r="256"/>
<path style="fill:#07B587;" d="M276.77,511.34L143.578,377.983l-7.089-16.979L108.96,318.97l-12.364-58.024l8.242-51.761
	l24.067-52.915l56.376-42.529l58.024-16.979l58.024,6.099l77.641,40.387l132.204,132.368
	c-9.396,125.445-109.29,225.67-234.571,235.725L276.77,511.34L276.77,511.34z"/>
<path style="fill:#E84F4F;" d="M131.214,366.115c-25.88-29.341-41.705-67.915-41.705-110.114
	c0-65.277,37.419-121.654,92.146-149.018L256,256L131.214,366.115z"/>
<path style="fill:#FFFFFF;" d="M256,89.674c91.982,0,166.491,74.509,166.491,166.491S347.982,422.655,256,422.655
	S89.509,348.147,89.509,256.165S164.018,89.674,256,89.674z M263.253,106.818v43.848c52.584,3.626,94.62,45.661,98.246,98.246
	h43.848C401.721,172.095,340.07,110.445,263.253,106.818z M263.253,164.348v50.937c17.144,2.967,30.661,16.484,33.628,33.628h50.937
	C344.356,203.91,308.42,167.809,263.253,164.348z M263.253,228.307v20.605h20.605C281.221,238.857,273.308,230.945,263.253,228.307z
	 M405.347,263.253h-43.848c-3.626,52.584-45.661,94.62-98.246,98.246v43.848C340.07,401.721,401.721,340.07,405.347,263.253z
	 M347.817,263.253H296.88c-2.967,17.144-16.484,30.661-33.628,33.628v50.937C308.255,344.356,344.356,308.42,347.817,263.253z
	 M283.858,263.253h-20.605v20.605C273.308,281.221,281.221,273.308,283.858,263.253z M248.912,405.347v-43.848
	c-52.584-3.626-94.62-45.661-98.246-98.246h-43.848C110.445,340.07,172.095,401.721,248.912,405.347z M248.912,347.817V296.88
	c-17.144-2.967-30.661-16.484-33.628-33.628h-50.937C167.809,308.255,203.745,344.356,248.912,347.817z M248.912,283.858v-20.605
	h-20.605C230.945,273.308,238.857,281.221,248.912,283.858z M106.818,248.912h43.848c3.626-52.584,45.661-94.62,98.246-98.246
	v-43.848C172.095,110.445,110.445,172.095,106.818,248.912z M164.348,248.912h50.937c2.967-17.144,16.484-30.661,33.628-33.628
	v-50.937C203.91,167.809,167.809,203.745,164.348,248.912z M228.307,248.912h20.605v-20.605
	C238.857,230.945,230.945,238.857,228.307,248.912z"/>
<circle style="fill:#E84F4F;" cx="327.207" cy="325.565" r="18.627"/>
<path style="fill:#E1E5E6;" d="M299.519,297.87h17.639v3.957h-13.683v13.682h-3.957V297.87H299.519z M337.267,297.87h17.639v17.639
	h-3.957v-13.682h-13.682V297.87z M354.906,335.619v17.639h-17.639V349.3h13.682v-13.682H354.906z M317.156,353.257h-17.639v-17.639
	h3.957V349.3h13.682V353.257z"/>
<circle style="fill:#E84F4F;" cx="308.589" cy="169.789" r="18.627"/>
<path style="fill:#E1E5E6;" d="M280.726,142.094h17.639v3.956h-13.682v13.682h-3.956v-17.638H280.726z M318.476,142.094h17.639
	v17.639h-3.957v-13.682h-13.682V142.094z M336.113,179.843v17.639h-17.639v-3.956h13.682v-13.682L336.113,179.843L336.113,179.843z
	 M298.365,197.481h-17.639v-17.639h3.956v13.682h13.682v3.957H298.365z"/>
<g>
</g>
<g>
</g>
<g>
</g>
<g>
</g>
<g>
</g>
<g>
</g>
<g>
</g>
<g>
</g>
<g>
</g>
<g>
</g>
<g>
</g>
<g>
</g>
<g>
</g>
<g>
</g>
<g>
</g>
</svg>
